<svg width="65" height="64" viewBox="0 0 65 64" fill="none" xmlns="http://www.w3.org/2000/svg">
<path fill-rule="evenodd" clip-rule="evenodd" d="M23.3204 2.6667C23.0266 2.66663 22.7709 2.66656 22.5269 2.68134C19.442 2.86817 16.7407 4.8152 15.5879 7.68271C15.4967 7.90949 15.416 8.15204 15.3231 8.43083L15.0648 9.20583C14.774 10.0783 13.9575 10.6667 13.0379 10.6667C7.58609 10.6667 3.16651 15.0863 3.16651 20.5381V43.3102C3.16647 45.4567 3.16644 47.2284 3.28436 48.6716C3.40682 50.1705 3.66966 51.5484 4.3291 52.8426C5.35175 54.8497 6.98355 56.4815 8.99061 57.5041C10.2848 58.1636 11.6627 58.4264 13.1616 58.5489C14.6048 58.6668 16.3764 58.6667 18.523 58.6667H46.4767C48.6233 58.6667 50.3949 58.6668 51.838 58.5489C53.337 58.4264 54.7149 58.1636 56.0091 57.5041C58.0161 56.4815 59.6479 54.8497 60.6706 52.8426C61.33 51.5484 61.5929 50.1705 61.7153 48.6716C61.8332 47.2284 61.8332 45.4568 61.8332 43.3102V20.5381C61.8332 15.0863 57.4136 10.6667 51.9618 10.6667C51.0422 10.6667 50.2257 10.0783 49.9349 9.20583L49.6765 8.43063C49.5837 8.15196 49.5029 7.90941 49.4118 7.68271C48.259 4.8152 45.5576 2.86817 42.4727 2.68134C42.2288 2.66656 41.9731 2.66663 41.6793 2.6667H23.3204ZM44.4998 32C44.4998 38.6274 39.1273 44 32.4998 44C25.8724 44 20.4998 38.6274 20.4998 32C20.4998 25.3726 25.8724 20 32.4998 20C39.1273 20 44.4998 25.3726 44.4998 32Z" fill="white"/>
</svg>
