<svg width="64" height="64" viewBox="0 0 64 64" fill="none" xmlns="http://www.w3.org/2000/svg">
<path fill-rule="evenodd" clip-rule="evenodd" d="M32 2.66669C15.7997 2.66669 2.66669 15.7997 2.66669 32C2.66669 48.2004 15.7997 61.3334 32 61.3334C48.2004 61.3334 61.3334 48.2004 61.3334 32C61.3334 15.7997 48.2004 2.66669 32 2.66669ZM45.8856 25.8856C46.927 24.8442 46.927 23.1558 45.8856 22.1144C44.8442 21.073 43.1558 21.073 42.1144 22.1144L28 36.2288L21.8856 30.1144C20.8442 29.073 19.1558 29.073 18.1144 30.1144C17.073 31.1558 17.073 32.8442 18.1144 33.8856L26.1144 41.8856C27.1558 42.927 28.8442 42.927 29.8856 41.8856L45.8856 25.8856Z" fill="white"/>
</svg>
