<svg width="65" height="64" viewBox="0 0 65 64" fill="none" xmlns="http://www.w3.org/2000/svg">
<path d="M54.0075 33.5559C53.8666 33.1897 53.5148 32.9481 53.1225 32.9481C52.7302 32.9481 52.3784 33.1897 52.2375 33.5559L50.3299 38.5157C50.0451 39.2563 49.9556 39.4697 49.8332 39.6419C49.7103 39.8146 49.5594 39.9656 49.3866 40.0884C49.2144 40.2108 49.001 40.3003 48.2605 40.5852L43.3007 42.4928C42.9345 42.6336 42.6929 42.9854 42.6929 43.3777C42.6929 43.7701 42.9345 44.1219 43.3007 44.2627L48.2605 46.1703C49.001 46.4552 49.2144 46.5447 49.3866 46.6671C49.5594 46.7899 49.7103 46.9409 49.8332 47.1136C49.9556 47.2858 50.0451 47.4992 50.3299 48.2398L52.2376 53.1996C52.3784 53.5658 52.7302 53.8074 53.1225 53.8074C53.5148 53.8074 53.8666 53.5658 54.0075 53.1996L55.9151 48.2398C56.1999 47.4992 56.2894 47.2858 56.4118 47.1136C56.5347 46.9409 56.6856 46.7899 56.8584 46.6671C57.0306 46.5447 57.244 46.4552 57.9845 46.1703L62.9443 44.2627C63.3105 44.1219 63.5521 43.7701 63.5521 43.3777C63.5521 42.9854 63.3105 42.6336 62.9443 42.4928L57.9845 40.5852C57.244 40.3003 57.0306 40.2108 56.8584 40.0884C56.6856 39.9656 56.5347 39.8146 56.4118 39.6419C56.2894 39.4697 56.1999 39.2563 55.9151 38.5157L54.0075 33.5559Z" fill="#47B9AE" fill-opacity="0.8"/>
<path d="M9.69687 48.1002C9.59125 47.8256 9.3274 47.6444 9.03316 47.6444C8.73892 47.6444 8.47507 47.8256 8.36945 48.1002L6.93872 51.8201C6.7251 52.3755 6.65798 52.5356 6.56616 52.6647C6.47402 52.7943 6.36082 52.9075 6.23125 52.9996C6.10212 53.0914 5.94207 53.1586 5.38666 53.3722L1.66677 54.8029C1.39215 54.9085 1.21094 55.1724 1.21094 55.4666C1.21094 55.7609 1.39215 56.0247 1.66677 56.1303L5.38666 57.5611C5.94207 57.7747 6.10212 57.8418 6.23125 57.9336C6.36082 58.0258 6.47402 58.139 6.56616 58.2685C6.65798 58.3977 6.7251 58.5577 6.93872 59.1131L8.36945 62.833C8.47507 63.1076 8.73892 63.2889 9.03316 63.2889C9.3274 63.2889 9.59125 63.1076 9.69687 62.833L11.1276 59.1131C11.3412 58.5577 11.4083 58.3977 11.5002 58.2685C11.5923 58.139 11.7055 58.0258 11.8351 57.9336C11.9642 57.8418 12.1243 57.7747 12.6797 57.5611L16.3995 56.1303C16.6742 56.0247 16.8554 55.7609 16.8554 55.4666C16.8554 55.1724 16.6742 54.9085 16.3995 54.8029L12.6797 53.3722C12.1243 53.1586 11.9642 53.0914 11.8351 52.9996C11.7055 52.9075 11.5923 52.7943 11.5002 52.6647C11.4083 52.5356 11.3412 52.3755 11.1276 51.8201L9.69687 48.1002Z" fill="#47B9AE" fill-opacity="0.8"/>
<path d="M21.9597 2.72292C21.7132 2.08213 21.0976 1.6593 20.411 1.6593C19.7245 1.6593 19.1088 2.08213 18.8624 2.72292L15.524 11.4026C15.0256 12.6986 14.8689 13.0721 14.6547 13.3734C14.4397 13.6757 14.1756 13.9398 13.8732 14.1548C13.5719 14.3691 13.1985 14.5257 11.9025 15.0241L3.2228 18.3625C2.58201 18.609 2.15918 19.2246 2.15918 19.9112C2.15918 20.5977 2.58201 21.2134 3.2228 21.4598L11.9025 24.7982C13.1985 25.2966 13.5719 25.4533 13.8732 25.6675C14.1756 25.8825 14.4397 26.1466 14.6547 26.4489C14.8689 26.7503 15.0256 27.1237 15.524 28.4197L18.8624 37.0994C19.1088 37.7402 19.7245 38.163 20.411 38.163C21.0976 38.163 21.7132 37.7402 21.9597 37.0994L25.2981 28.4197C25.7965 27.1237 25.9531 26.7503 26.1674 26.4489C26.3824 26.1466 26.6465 25.8825 26.9488 25.6675C27.2501 25.4533 27.6236 25.2966 28.9195 24.7982L37.5993 21.4598C38.2401 21.2134 38.6629 20.5977 38.6629 19.9112C38.6629 19.2246 38.2401 18.609 37.5993 18.3625L28.9195 15.0241C27.6236 14.5257 27.2501 14.3691 26.9488 14.1548C26.6465 13.9398 26.3823 13.6757 26.1674 13.3734C25.9531 13.0721 25.7965 12.6986 25.2981 11.4026L21.9597 2.72292Z" fill="#47B9AE" fill-opacity="0.8"/>
</svg>
